<?xml version="1.0" encoding="UTF-8" standalone="no"?>
<!-- Created with Inkscape (http://www.inkscape.org/) -->

<svg
   width="1440"
   height="2160"
   viewBox="0 0 381 571.49999"
   version="1.1"
   id="svg1"
   sodipodi:docname="social-portrait.svg"
   inkscape:version="1.4.2 (ebf0e940d0, 2025-05-08)"
   inkscape:export-filename="msstore-potrait.png"
   inkscape:export-xdpi="96"
   inkscape:export-ydpi="96"
   xmlns:inkscape="http://www.inkscape.org/namespaces/inkscape"
   xmlns:sodipodi="http://sodipodi.sourceforge.net/DTD/sodipodi-0.dtd"
   xmlns:xlink="http://www.w3.org/1999/xlink"
   xmlns="http://www.w3.org/2000/svg"
   xmlns:svg="http://www.w3.org/2000/svg">
  <sodipodi:namedview
     id="namedview1"
     pagecolor="#ffffff"
     bordercolor="#000000"
     borderopacity="0.25"
     inkscape:showpageshadow="2"
     inkscape:pageopacity="0.0"
     inkscape:pagecheckerboard="0"
     inkscape:deskcolor="#d1d1d1"
     inkscape:document-units="mm"
     inkscape:zoom="0.17480469"
     inkscape:cx="191.64246"
     inkscape:cy="726.52513"
     inkscape:window-width="1536"
     inkscape:window-height="827"
     inkscape:window-x="0"
     inkscape:window-y="0"
     inkscape:window-maximized="1"
     inkscape:current-layer="layer1" />
  <defs
     id="defs1">
    <linearGradient
       id="linearGradient3"
       inkscape:collect="always">
      <stop
         style="stop-color:#16a34a;stop-opacity:1"
         offset="0"
         id="stop3" />
      <stop
         style="stop-color:#166534;stop-opacity:1"
         offset="1"
         id="stop4" />
    </linearGradient>
    <linearGradient
       inkscape:collect="always"
       xlink:href="#linearGradient3"
       id="linearGradient4"
       x1="-19.906652"
       y1="-10.564318"
       x2="279.63647"
       y2="499.29684"
       gradientUnits="userSpaceOnUse" />
  </defs>
  <g
     inkscape:label="Layer 1"
     inkscape:groupmode="layer"
     id="layer1">
    <rect
       style="fill:url(#linearGradient4);fill-opacity:1;stroke:none;stroke-width:2;stroke-linecap:round;stroke-linejoin:round"
       id="rect1"
       width="381"
       height="571.5"
       x="0"
       y="0" />
    <g
       id="g4"
       transform="matrix(2.1705599,0,0,2.1705599,-168.24933,-5.4895067)">
      <circle
         style="fill:#052e16;stroke:#2dd4bf;stroke-width:7.23191;stroke-linecap:round;stroke-linejoin:round;stroke-dasharray:none"
         id="path13"
         cx="164.36685"
         cy="80.643219"
         r="16.874447" />
      <circle
         style="fill:#f0fdf4;stroke:none;stroke-width:4.82127;stroke-linecap:round;stroke-linejoin:round;stroke-dasharray:none"
         id="path14"
         cx="168.60312"
         cy="80.797859"
         r="2.410635" />
      <circle
         style="fill:#f0fdf4;stroke:none;stroke-width:4.82127;stroke-linecap:round;stroke-linejoin:round;stroke-dasharray:none"
         id="path15"
         cx="172.95816"
         cy="71.357323"
         r="4.82127" />
      <path
         style="fill:#dcfce7;stroke:none;stroke-width:4.82127;stroke-linecap:round;stroke-linejoin:round;stroke-dasharray:none"
         d="m 114.90145,84.089876 c 0,0 33.99059,-66.174811 100.75635,-7.203157 0,0 -52.55349,-23.679692 -100.75635,7.203157 z"
         id="path16"
         sodipodi:nodetypes="ccc" />
      <path
         style="fill:#dcfce7;stroke:none;stroke-width:4.82127;stroke-linecap:round;stroke-linejoin:round;stroke-dasharray:none"
         d="m 119.60718,87.381961 c 0,0 42.97053,56.881149 94.93261,-7.460651 0,0 -46.84784,36.72867 -94.93261,7.460651 z"
         id="path17"
         sodipodi:nodetypes="ccc" />
    </g>
    <g
       id="text1"
       style="font-style:italic;font-weight:bold;font-size:88.1944px;line-height:1;font-family:'Libertinus Serif';-inkscape-font-specification:'Libertinus Serif Bold Italic';text-align:center;text-anchor:middle;fill:#16a34a;stroke-width:0.857001;stroke-linecap:round;stroke-linejoin:round"
       aria-label="Sane&#10;Break">
      <path
         style="font-weight:normal;font-family:Z003;-inkscape-font-specification:'Z003 Medium Italic';fill:#dcfce7;stroke:#dcfce7;stroke-width:0.857"
         d="m 108.34691,376.1234 -3.88055,9.17222 c 3.0868,4.14514 7.14375,6.08541 12.96458,6.08541 13.49374,0 26.7229,-10.9361 26.7229,-22.22498 0,-3.61597 -1.32292,-5.46806 -7.9375,-10.58333 -6.43819,-5.02708 -7.49652,-6.52639 -7.49652,-10.31875 0,-5.82083 4.32153,-10.67152 9.525,-10.67152 3.70416,0 5.02708,1.5875 5.99721,7.23194 l 5.82083,-4.14513 c -0.52916,-4.7625 -3.17499,-7.23194 -7.8493,-7.23194 -9.08402,0 -19.40276,9.96596 -19.40276,18.7854 0,4.05694 1.76388,6.79097 6.96735,10.84791 5.99722,4.7625 7.58472,7.14375 7.58472,11.20069 0,6.96736 -6.61458,12.96458 -14.28749,12.96458 -3.79236,0 -7.67291,-1.6757 -10.05416,-4.32153 -1.85208,-2.02847 -2.55764,-3.88055 -3.2632,-7.7611 z m 78.40482,-2.55763 c -6.43819,4.40972 -7.9375,5.29166 -8.81944,5.29166 -0.61736,0 -1.05833,-0.70556 -1.05833,-1.76389 0,-2.38125 2.02847,-11.64166 5.29166,-23.72429 0.97014,-1.41111 1.14653,-1.5875 2.55764,-3.175 -4.23333,-0.97014 -7.23194,-1.32291 -11.11249,-1.32291 -3.61597,0 -5.37986,0.35277 -7.58472,1.76388 -3.175,1.85209 -6.87917,4.58611 -8.02569,5.82083 -3.35139,3.70417 -6.96736,15.61041 -6.96736,22.75416 0,4.23333 1.41111,7.05555 3.61597,7.05555 1.94028,0 4.85069,-1.76389 15.87499,-9.70138 -0.97014,4.49791 -1.32291,6.70277 -1.32291,7.8493 0,1.23472 0.52916,1.85208 1.41111,1.85208 1.14652,0 1.85208,-0.35278 8.11388,-4.49791 2.99861,-2.02848 4.6743,-3.175 7.9375,-5.55625 z m -15.52221,-0.61736 c -3.08681,2.29305 -4.67431,3.43958 -4.7625,3.52777 -2.91042,1.85208 -5.20347,2.99861 -6.35,2.99861 -1.4993,0 -2.29305,-1.5875 -2.29305,-4.40972 0,-4.49791 1.32291,-10.31874 3.61597,-15.43402 2.11666,-4.85069 4.05694,-6.70277 7.05555,-6.70277 1.5875,0 4.58611,0.44097 7.49652,1.14652 -1.76388,6.35 -2.38124,8.73125 -2.46944,9.17222 -0.52917,2.20486 -0.97014,4.40972 -1.4993,6.70278 -0.0882,0.44097 -0.35278,1.4993 -0.79375,2.99861 z m 23.6361,10.49513 5.20347,-20.72568 2.20486,-1.41112 c 8.20208,-5.11527 9.17222,-5.64444 10.40694,-5.64444 0.52917,0 0.88194,0.44098 0.88194,1.14653 0,1.41111 -0.61736,3.96875 -3.26319,14.72847 -1.94028,7.7611 -2.29305,9.3486 -2.29305,11.02429 0,1.23473 0.35277,2.29306 1.32291,3.96875 3.96875,-1.76389 10.14236,-5.64444 16.31597,-10.23055 l 0.61736,-2.46944 c -8.55486,4.93889 -9.17222,5.20347 -10.05416,5.20347 -0.88195,0 -1.41112,-0.88195 -1.41112,-2.38125 0,-2.38125 0.35278,-3.88055 4.23334,-17.90346 2.20486,-7.8493 2.20486,-7.8493 2.20486,-8.37847 0,-0.97014 -0.61736,-1.4993 -1.6757,-1.4993 -1.94027,0 -2.20486,0.17638 -11.72985,5.99721 -3.52778,2.20486 -5.82083,3.61597 -6.87917,4.32153 0.88195,-3.0868 2.11667,-8.46666 2.11667,-9.17222 0,-0.70555 -0.44097,-1.14652 -1.14653,-1.14652 -0.97014,0 -6.96735,3.0868 -13.84652,7.14374 l -0.52916,2.29306 c 5.64444,-2.55764 5.99722,-2.64584 6.79096,-2.64584 0.61737,0 1.05834,0.52917 1.05834,1.23473 0,1.94027 -1.5875,8.99582 -3.88056,17.1979 l -2.02847,7.14375 c -0.17639,0.61736 -0.61736,2.29305 -1.23472,4.7625 z m 59.61933,-10.40694 c -7.05555,5.99722 -10.84791,8.20208 -14.19929,8.20208 -2.29306,0 -4.05695,-1.49931 -4.67431,-3.79236 -0.35277,-1.41111 -0.44097,-2.38125 -0.44097,-4.93889 4.05694,-2.55763 6.52639,-4.32152 11.72986,-8.20208 4.85069,-3.61597 6.61458,-6.52638 6.61458,-10.49513 0,-3.0868 -1.85209,-4.93888 -5.02708,-4.93888 -1.94028,0 -3.2632,0.44097 -5.37986,1.58749 -3.35139,1.94028 -6.35,4.32153 -8.11389,6.4382 -3.35138,4.05694 -6.34999,13.75832 -6.34999,20.90207 0,5.20347 2.73402,8.46666 7.23194,8.46666 5.20347,0 11.90624,-3.88055 18.52082,-10.67152 z m -19.04999,-3.70416 c 1.49931,-9.525 5.46806,-16.75694 9.34861,-16.75694 1.41111,0 2.38125,1.41111 2.38125,3.61597 0,4.40972 -2.55764,7.23194 -11.72986,13.14097 z"
         id="path2" />
      <path
         style="font-weight:normal;font-family:Z003;-inkscape-font-specification:'Z003 Medium Italic';fill:#dcfce7;stroke:#dcfce7;stroke-width:0.857"
         d="m 93.442048,482.6808 c 2.293054,0 2.381249,0 5.115275,0.0882 h 2.998607 c 0.52917,0 1.6757,0 3.08681,0.0882 5.90902,0.0882 5.90902,0.0882 7.49652,0.0882 6.08541,0 10.58333,-1.14653 16.58055,-4.05695 7.93749,-4.05694 11.81805,-9.08402 11.81805,-15.52221 0,-2.73403 -1.32292,-5.29166 -3.52778,-6.96736 -1.85208,-1.41111 -3.79236,-1.94027 -8.02569,-2.46944 8.81944,-3.88055 13.14097,-8.73125 13.14097,-14.37569 0,-5.90902 -4.67431,-8.37847 -15.69861,-8.37847 h -1.32291 l 0.70555,-2.73402 -7.14374,3.0868 c -7.58472,1.14653 -11.90625,2.46945 -15.875,4.85069 -7.055548,4.32153 -10.671518,10.49514 -10.671518,18.25624 0,1.85209 0.176389,3.08681 0.617361,5.73264 l 7.055552,-3.26319 c -0.79375,-4.14514 -0.881944,-4.7625 -0.881944,-6.52639 0,-5.99722 1.852079,-9.70138 6.349999,-12.6118 3.43958,-2.29305 7.05555,-3.35138 12.6118,-3.70416 l -6.52639,26.10554 c -3.70416,15.25763 -5.20347,17.19791 -13.758325,18.07985 z m 25.223602,-25.66457 c 1.67569,-0.17639 2.46944,-0.17639 3.35138,-0.17639 6.96736,0 10.84791,3.08681 10.84791,8.55486 0,3.35139 -1.41111,7.23194 -3.61597,9.70138 -2.38125,2.73403 -5.90902,4.14514 -10.31874,4.14514 -2.38125,0 -4.32153,-0.17639 -13.05277,-1.14653 8.64305,-7.67291 10.05416,-9.78957 11.90624,-17.72707 z m 5.82083,-23.37151 c 4.23333,0.0882 5.29166,0.26458 6.52638,0.88194 2.11667,0.97014 3.43958,3.52778 3.43958,6.43819 0,4.14514 -2.02847,8.37847 -5.02708,10.67152 -2.73402,2.02848 -5.37986,2.82223 -10.14235,2.91042 z m 21.87224,50.00622 6.79097,-2.55764 6.61458,-25.1354 c 2.99861,-2.29305 5.02708,-3.0868 7.40833,-3.0868 1.94027,0 3.0868,0.70555 4.6743,2.73402 l 2.64583,-8.37847 c -1.5875,-0.52916 -2.38125,-0.70555 -3.26319,-0.70555 -1.67569,0 -3.43958,0.79375 -5.82083,2.46944 -1.14653,0.88195 -2.29305,1.76389 -3.52778,2.55764 -0.52916,0.44097 -1.14652,0.88194 -1.67569,1.23472 l 1.05833,-5.29166 c 0,-0.52917 -0.52916,-0.97014 -1.14652,-0.97014 -1.14653,0 -8.90764,3.79236 -14.2875,6.96736 l -0.26458,2.38125 c 5.11528,-2.46945 5.20347,-2.55764 6.35,-2.55764 1.14652,0 1.67569,0.61736 1.67569,1.85208 0,1.23472 -0.88194,5.29166 -1.94028,9.17222 z m 50.88806,-12.96458 c -7.05555,5.99722 -10.84791,8.20208 -14.1993,8.20208 -2.29305,0 -4.05694,-1.4993 -4.6743,-3.79236 -0.35278,-1.41111 -0.44097,-2.38124 -0.44097,-4.93888 4.05694,-2.55764 6.52638,-4.32153 11.72985,-8.20208 4.85069,-3.61597 6.61458,-6.52639 6.61458,-10.49513 0,-3.08681 -1.85208,-4.93889 -5.02708,-4.93889 -1.94028,0 -3.26319,0.44097 -5.37986,1.5875 -3.35139,1.94028 -6.35,4.32152 -8.11388,6.43819 -3.35139,4.05694 -6.35,13.75833 -6.35,20.90207 0,5.20347 2.73403,8.46666 7.23194,8.46666 5.20347,0 11.90624,-3.88055 18.52082,-10.67152 z m -19.04999,-3.70416 c 1.4993,-9.525 5.46805,-16.75694 9.3486,-16.75694 1.41112,0 2.38125,1.41111 2.38125,3.61597 0,4.40972 -2.55763,7.23195 -11.72985,13.14097 z m 59.26662,4.23333 c -6.43819,4.40972 -7.9375,5.29166 -8.81944,5.29166 -0.61736,0 -1.05833,-0.70555 -1.05833,-1.76388 0,-2.38125 2.02847,-11.64166 5.29166,-23.7243 0.97014,-1.41111 1.14653,-1.5875 2.55764,-3.17499 -4.23333,-0.97014 -7.23194,-1.32292 -11.11249,-1.32292 -3.61597,0 -5.37986,0.35278 -7.58472,1.76389 -3.175,1.85208 -6.87917,4.58611 -8.02569,5.82083 -3.35139,3.70416 -6.96736,15.61041 -6.96736,22.75415 0,4.23333 1.41111,7.05555 3.61597,7.05555 1.94028,0 4.85069,-1.76388 15.87499,-9.70138 -0.97014,4.49791 -1.32291,6.70277 -1.32291,7.8493 0,1.23472 0.52916,1.85208 1.41111,1.85208 1.14652,0 1.85208,-0.35277 8.11388,-4.49791 2.99861,-2.02847 4.6743,-3.175 7.9375,-5.55625 z m -15.52221,-0.61736 c -3.08681,2.29305 -4.67431,3.43958 -4.7625,3.52778 -2.91042,1.85208 -5.20347,2.99861 -6.35,2.99861 -1.4993,0 -2.29305,-1.5875 -2.29305,-4.40972 0,-4.49792 1.32291,-10.31875 3.61597,-15.43402 2.11666,-4.8507 4.05694,-6.70278 7.05555,-6.70278 1.5875,0 4.58611,0.44097 7.49652,1.14653 -1.76388,6.35 -2.38124,8.73124 -2.46944,9.17222 -0.52917,2.20486 -0.97014,4.40972 -1.4993,6.70277 -0.0882,0.44097 -0.35278,1.49931 -0.79375,2.99861 z m 16.84514,13.14097 c 0.97013,-0.35278 1.85208,-0.70556 2.11666,-0.79375 0.52917,-0.17639 1.41111,-0.44098 2.38125,-0.79375 0.26458,-0.0882 1.05833,-0.35278 1.94028,-0.61736 l 3.43958,-15.69861 2.02847,-1.23472 c 1.76389,4.05694 2.11667,4.85069 4.93889,11.46527 3.79236,8.99583 6.08541,12.6118 9.70138,15.43402 3.79236,2.91042 9.26041,4.7625 13.93471,4.7625 4.05695,0 6.87917,-0.88194 9.61319,-3.0868 l -1.76388,-6.35 c -2.82222,4.7625 -5.37986,6.61458 -9.08403,6.61458 -2.91041,0 -5.29166,-1.41111 -8.02569,-4.6743 C 267.6259,485.944 267.6259,485.944 258.1891,465.92387 l -2.55763,-5.46806 5.90902,-5.37985 c 3.52778,-3.08681 4.49791,-3.70417 6.17361,-3.70417 1.4993,0 2.55764,0.70556 3.96875,2.55764 l 4.49791,-6.70278 c -1.76389,-1.32291 -2.99861,-1.76388 -4.93889,-1.76388 -2.38124,0 -3.88055,0.79375 -6.52638,3.26319 -2.73403,2.64583 -2.82222,2.73403 -3.79236,3.61597 l -11.37708,10.14236 3.35139,-13.49375 c 2.82222,-11.64166 3.79236,-14.46388 5.29166,-16.93332 1.5875,-2.55764 3.88056,-3.79236 6.87917,-3.79236 0.79375,0 1.4993,0.0882 3.0868,0.35278 l 3.52778,-5.11528 c -1.14653,-0.17639 -1.6757,-0.26458 -2.55764,-0.26458 -3.175,0 -5.20347,0.70555 -8.02569,2.73403 -5.64444,3.96874 -9.61319,7.8493 -10.75972,10.40693 -0.88194,1.94028 -2.55764,7.76111 -3.70416,12.87639 z"
         id="path3" />
    </g>
  </g>
</svg>
