<?xml version="1.0" encoding="UTF-8" standalone="no"?>
<!-- Created with Inkscape (http://www.inkscape.org/) -->

<svg
   width="1280"
   height="640"
   viewBox="0 0 338.66667 169.33333"
   version="1.1"
   id="svg1"
   sodipodi:docname="social.svg"
   inkscape:version="1.3.2 (091e20ef0f, 2023-11-25, custom)"
   inkscape:export-filename="social.png"
   inkscape:export-xdpi="96"
   inkscape:export-ydpi="96"
   xmlns:inkscape="http://www.inkscape.org/namespaces/inkscape"
   xmlns:sodipodi="http://sodipodi.sourceforge.net/DTD/sodipodi-0.dtd"
   xmlns:xlink="http://www.w3.org/1999/xlink"
   xmlns="http://www.w3.org/2000/svg"
   xmlns:svg="http://www.w3.org/2000/svg">
  <sodipodi:namedview
     id="namedview1"
     pagecolor="#ffffff"
     bordercolor="#000000"
     borderopacity="0.25"
     inkscape:showpageshadow="2"
     inkscape:pageopacity="0.0"
     inkscape:pagecheckerboard="0"
     inkscape:deskcolor="#d1d1d1"
     inkscape:document-units="mm"
     inkscape:zoom="0.12360558"
     inkscape:cx="1071.9581"
     inkscape:cy="-1431.9742"
     inkscape:window-width="1536"
     inkscape:window-height="896"
     inkscape:window-x="0"
     inkscape:window-y="0"
     inkscape:window-maximized="1"
     inkscape:current-layer="layer1" />
  <defs
     id="defs1">
    <linearGradient
       id="linearGradient7"
       inkscape:collect="always">
      <stop
         style="stop-color:#f7fee7;stop-opacity:1;"
         offset="0"
         id="stop7" />
      <stop
         style="stop-color:#fefce8;stop-opacity:1"
         offset="1"
         id="stop8" />
    </linearGradient>
    <linearGradient
       id="linearGradient3"
       inkscape:collect="always">
      <stop
         style="stop-color:#047857;stop-opacity:1"
         offset="0"
         id="stop3" />
      <stop
         style="stop-color:#064e3b;stop-opacity:1"
         offset="1"
         id="stop4" />
    </linearGradient>
    <linearGradient
       id="linearGradient1"
       inkscape:collect="always">
      <stop
         style="stop-color:#22c55e;stop-opacity:1"
         offset="0"
         id="stop1" />
      <stop
         style="stop-color:#15803d;stop-opacity:1"
         offset="1"
         id="stop2" />
    </linearGradient>
    <linearGradient
       inkscape:collect="always"
       xlink:href="#linearGradient1"
       id="linearGradient2"
       x1="6.3500004"
       y1="0.12959194"
       x2="6.3500004"
       y2="12.570409"
       gradientUnits="userSpaceOnUse"
       gradientTransform="matrix(9.1110623,0,0,9.1110623,106.5116,22.787978)" />
    <linearGradient
       inkscape:collect="always"
       xlink:href="#linearGradient3"
       id="linearGradient4"
       x1="-19.906652"
       y1="-10.564318"
       x2="338.66666"
       y2="169.33333"
       gradientUnits="userSpaceOnUse" />
    <linearGradient
       inkscape:collect="always"
       xlink:href="#linearGradient7"
       id="linearGradient8"
       x1="66.726898"
       y1="121.60973"
       x2="277.91342"
       y2="147.40706"
       gradientUnits="userSpaceOnUse"
       gradientTransform="matrix(0.8566459,0,0,0.8566459,24.274622,18.835628)" />
  </defs>
  <g
     inkscape:label="Layer 1"
     inkscape:groupmode="layer"
     id="layer1">
    <rect
       style="fill:url(#linearGradient4);stroke:none;stroke-width:2;stroke-linecap:round;stroke-linejoin:round;fill-opacity:1"
       id="rect1"
       width="338.66666"
       height="169.33299"
       x="0"
       y="0" />
    <g
       id="g4"
       transform="matrix(0.7436202,0,0,0.7436202,47.106823,-1.7595998)">
      <circle
         style="fill:url(#linearGradient2);fill-opacity:1;stroke:none;stroke-width:2.36143;stroke-linejoin:round;stroke-dasharray:none"
         id="path1"
         cx="164.36685"
         cy="80.643227"
         r="56.67453" />
      <circle
         style="fill:#052e16;stroke:#2dd4bf;stroke-width:7.23191;stroke-linecap:round;stroke-linejoin:round;stroke-dasharray:none"
         id="path13"
         cx="164.36685"
         cy="80.643219"
         r="16.874447" />
      <circle
         style="fill:#f0fdf4;stroke:none;stroke-width:4.82127;stroke-linecap:round;stroke-linejoin:round;stroke-dasharray:none"
         id="path14"
         cx="168.60312"
         cy="80.797859"
         r="2.410635" />
      <circle
         style="fill:#f0fdf4;stroke:none;stroke-width:4.82127;stroke-linecap:round;stroke-linejoin:round;stroke-dasharray:none"
         id="path15"
         cx="172.95816"
         cy="71.357323"
         r="4.82127" />
      <path
         style="fill:#dcfce7;stroke:none;stroke-width:4.82127;stroke-linecap:round;stroke-linejoin:round;stroke-dasharray:none"
         d="m 114.90145,84.089876 c 0,0 33.99059,-66.174811 100.75635,-7.203157 0,0 -52.55349,-23.679692 -100.75635,7.203157 z"
         id="path16"
         sodipodi:nodetypes="ccc" />
      <path
         style="fill:#dcfce7;stroke:none;stroke-width:4.82127;stroke-linecap:round;stroke-linejoin:round;stroke-dasharray:none"
         d="m 119.60718,87.381961 c 0,0 42.97053,56.881149 94.93261,-7.460651 0,0 -46.84784,36.72867 -94.93261,7.460651 z"
         id="path17"
         sodipodi:nodetypes="ccc" />
    </g>
    <path
       d="m 98.472127,120.98434 c -1.849497,-0.29012 -2.465996,-0.97915 -5.69355,-0.97915 -1.922026,0 -4.170435,0.61649 -5.584756,1.59564 -1.740703,1.23301 -3.11876,3.11877 -3.11876,6.09247 0,2.8649 1.704439,4.67813 4.242964,6.38257 2.067085,1.41433 3.662729,2.64732 3.662729,4.85946 0,2.32094 -1.922026,3.77153 -4.279228,3.77153 -2.320938,0 -4.315493,-1.99456 -4.388023,-5.29464 -0.181322,-0.0726 -0.362646,-0.1088 -0.580234,-0.1088 -0.398911,0 -0.797822,0.1088 -1.196734,0.21759 -0.398911,1.95829 -0.507705,3.51767 -0.507705,4.71441 0,0.47144 0,0.90661 0.03626,1.26926 1.994556,0 1.922027,0.72529 6.745225,0.72529 2.139614,0 4.061641,-0.5077 5.766079,-1.84949 1.595645,-1.30553 3.336348,-3.00997 3.336348,-5.94741 0,-3.33634 -3.082495,-5.83861 -5.077051,-6.99907 -1.124203,-0.65276 -3.009965,-2.32094 -3.009965,-4.17043 0,-2.32094 1.849496,-3.77153 3.626464,-3.77153 2.973702,0 3.408877,2.79238 3.553936,5.18585 0.181323,0.0726 0.435176,0.10879 0.689028,0.10879 0.398912,0 0.834087,-0.10879 1.087939,-0.29012 0.362647,-1.92203 0.507706,-3.40887 0.689029,-5.51222 z m 16.826803,7.0716 c -0.65276,0 -1.48684,0.18133 -2.13961,0.18133 -0.21758,0 -0.39891,-0.0362 -0.58024,-0.0726 -0.97914,-0.1088 -0.90661,-0.21759 -2.35719,-0.21759 -3.04623,0 -5.94741,1.92203 -7.94196,4.46056 -1.63191,2.06708 -2.683586,4.49681 -2.683586,7.18039 0,2.50227 1.232996,4.64188 3.880316,4.64188 1.55938,0 3.80779,-1.7407 5.98367,-4.96826 l 0.14506,0.0726 -0.18133,0.65276 c -0.18132,0.76156 -0.29011,1.55938 -0.29011,2.17588 0,0.32639 0.0363,0.65277 0.10879,0.87035 0.29012,0.72529 0.7253,1.19673 1.81323,1.19673 2.53853,0 4.78693,-1.19673 6.45511,-3.33634 -0.1088,-0.32638 -0.54397,-1.01541 -1.05167,-1.01541 -0.94289,1.08794 -2.17588,1.70443 -2.53853,1.70443 -0.29012,0 -0.39891,-0.29011 -0.39891,-0.65276 0,-0.47144 0.14505,-1.05167 0.25385,-1.55938 l 1.52311,-7.10787 c 0.32639,-1.45059 0.76156,-2.82864 0.76156,-3.44514 0,-0.50771 -0.29012,-0.76156 -0.76156,-0.76156 z m -5.18584,7.61557 c -1.77697,3.26382 -3.22755,5.11332 -4.38802,5.11332 -1.1242,0 -1.59564,-0.83409 -1.59564,-1.92202 0,-2.10336 0.72529,-4.53309 1.84949,-6.41885 1.05168,-1.7407 2.50226,-2.9737 4.06164,-2.9737 0.76156,0 1.16047,0.21759 1.233,0.68903 0,0 -0.25385,3.19129 -1.16047,5.51222 z m 12.07615,-0.61649 -1.37806,6.20125 c -0.18132,0.7253 -0.47144,1.63191 -0.47144,1.99456 0,0.58024 0.36265,0.97914 2.39347,0.97914 2.21214,0 2.13962,-1.55938 2.50226,-2.9737 l 1.37805,-5.65728 c 2.28468,-2.9737 4.13417,-5.11332 5.4397,-5.11332 0.76156,0 1.26926,0.18133 1.26926,1.30553 0,0.50771 -0.0362,0.87035 -0.32638,2.10335 l -1.34179,5.80234 c -0.29011,1.16048 -0.47144,2.68359 -0.25385,3.33635 0.29012,0.72529 0.68902,1.19673 1.77697,1.19673 2.53852,0 5.04078,-1.19673 6.70895,-3.33634 -0.10879,-0.32638 -0.54397,-1.01541 -1.05167,-1.01541 -0.94288,1.08794 -2.17588,1.70443 -2.53852,1.70443 -0.6165,0 -0.36265,-1.26925 -0.14506,-2.21214 l 1.37806,-5.76607 c 0.29011,-1.26927 0.47143,-2.10336 0.47143,-2.75612 0,-2.17588 -1.81322,-2.90117 -3.22755,-2.90117 -2.32093,0 -4.24296,0.79782 -7.57931,4.7144 l -0.0726,-0.0726 c 0.32639,-1.5231 0.47144,-3.04622 0.47144,-3.66272 0,-0.50771 -0.3989,-0.87036 -0.87035,-0.87036 -1.16046,0 -4.31549,0.25385 -6.01992,0.47144 -0.25386,0.29012 -0.29013,1.05168 -0.0726,1.37806 l 1.45058,0.1088 c 0.50771,0.0362 0.65277,0.65276 0.65277,1.08794 0,0.3989 0,1.55938 -0.54397,3.95284 z m 24.18853,1.59564 c 4.56934,-0.97915 7.1804,-2.03082 8.4134,-3.22755 1.1242,-1.05168 1.1242,-2.28467 1.1242,-2.93744 0,-1.26926 -1.48685,-2.53852 -4.42429,-2.53852 -7.03534,0 -9.82771,6.16499 -9.82771,10.7706 0,3.08249 0.94287,5.51222 5.29463,5.51222 2.42974,0 5.25838,-1.19673 7.39799,-3.95285 -0.18132,-0.3989 -0.72529,-0.90661 -1.16046,-0.90661 -2.06709,2.10335 -3.19129,2.68359 -4.932,2.68359 -1.41432,0 -1.92203,-1.7407 -1.92203,-4.17044 0,-0.18132 0,-0.94288 0.0362,-1.233 z m 5.4397,-6.20125 c 0,3.26382 -3.26382,4.49682 -5.18585,4.8232 1.233,-5.11332 2.61106,-5.83861 4.02538,-5.83861 0.76156,0 1.16047,0.29011 1.16047,1.01541 z m 22.01265,-9.97278 c -1.37806,0 -5.33091,-0.0726 -5.33091,-0.0726 -0.25385,0.14507 -0.3989,0.50771 -0.3989,0.83409 0,0.18133 0.0362,0.32638 0.14505,0.39892 1.52312,0.0726 2.42973,0.18131 2.42973,1.77696 0,0.39892 -0.0726,0.90662 -0.18131,1.48685 l -2.82865,14.54213 c -0.58023,3.00996 -1.59565,3.15502 -3.51767,3.26382 -0.25386,0.14505 -0.36265,0.47144 -0.36265,0.79782 0,0.18132 0.0362,0.36264 0.14506,0.43517 0,0 3.98911,-0.0726 5.36717,-0.0726 1.37805,0 3.5902,0.0726 5.69355,0.0726 7.54305,0 10.91566,-3.37261 10.91566,-8.34087 0,-2.3572 -1.26927,-3.91658 -4.17043,-4.75066 l 0.0362,-0.0726 c 2.42973,-1.01541 4.35176,-3.15503 4.35176,-5.91114 0,-2.21214 -1.37806,-4.46055 -7.32546,-4.46055 -1.7407,0 -3.88031,0.0726 -4.96825,0.0726 z m 0.21759,11.27831 h 2.46599 c 2.9737,0 4.27923,1.52311 4.27923,3.84405 0,3.19129 -1.48685,6.81775 -6.52763,6.81775 -1.63191,0 -2.06709,-0.32638 -2.06709,-0.97914 0,-0.18133 0.0362,-0.39892 0.0726,-0.6165 z m 1.59564,-8.26834 c 0.21759,-1.05168 0.50771,-1.55939 2.75612,-1.55939 1.34179,0 2.86491,0.47145 2.86491,2.79239 0,3.66272 -2.13962,5.51222 -4.96827,5.51222 h -1.95828 z m 19.94557,12.11239 c 1.7407,-3.15503 2.75611,-4.46055 3.77153,-4.46055 0.43517,0 0.65276,0.21758 0.90661,0.54397 0.32638,0.36264 0.87035,0.94288 1.48686,0.94288 1.16046,0 1.95828,-1.30553 1.95828,-2.53852 0,-0.94289 -0.65276,-2.13962 -2.2484,-2.13962 -1.63191,0 -3.699,1.34179 -5.29464,4.7144 l -0.10879,-0.0726 c 0.32638,-1.5231 0.47143,-3.00996 0.47143,-3.66272 0,-0.50771 -0.39891,-0.87036 -0.87035,-0.87036 -1.16047,0 -4.31549,0.25385 -6.01993,0.47144 -0.25385,0.29012 -0.29011,1.05168 -0.0726,1.37806 l 1.45058,0.1088 c 0.5077,0.0362 0.65277,0.65276 0.65277,1.08794 0,0.3989 -0.0362,1.55938 -0.54397,3.95284 l -1.34179,6.20126 c -0.14507,0.72529 -0.47145,1.63191 -0.47145,1.99455 0,0.58024 0.36265,0.97915 2.39347,0.97915 2.21214,0 2.13962,-1.55938 2.50226,-2.9737 z m 12.36629,1.05167 c 4.56934,-0.97915 7.1804,-2.03082 8.41339,-3.22755 1.12421,-1.05168 1.12421,-2.28467 1.12421,-2.93744 0,-1.26926 -1.48685,-2.53852 -4.42429,-2.53852 -7.03534,0 -9.82771,6.16499 -9.82771,10.7706 0,3.08249 0.94287,5.51222 5.29463,5.51222 2.42973,0 5.25838,-1.19673 7.39799,-3.95285 -0.18132,-0.3989 -0.72529,-0.90661 -1.16047,-0.90661 -2.06708,2.10335 -3.19128,2.68359 -4.93199,2.68359 -1.41432,0 -1.92203,-1.7407 -1.92203,-4.17044 0,-0.18132 0,-0.94288 0.0362,-1.233 z m 5.43969,-6.20125 c 0,3.26382 -3.26382,4.49682 -5.18584,4.8232 1.233,-5.11332 2.61106,-5.83861 4.02538,-5.83861 0.76155,0 1.16046,0.29011 1.16046,1.01541 z m 20.81593,-2.39347 c -0.65276,0 -1.48684,0.18133 -2.13961,0.18133 -0.21759,0 -0.39891,-0.0362 -0.58024,-0.0726 -0.97914,-0.1088 -0.90661,-0.21759 -2.3572,-0.21759 -3.04623,0 -5.9474,1.92203 -7.94195,4.46056 -1.63191,2.06708 -2.68359,4.49681 -2.68359,7.18039 0,2.50227 1.233,4.64188 3.88032,4.64188 1.55938,0 3.80779,-1.7407 5.98367,-4.96826 l 0.14505,0.0726 -0.18132,0.65276 c -0.18132,0.76156 -0.29012,1.55938 -0.29012,2.17588 0,0.32639 0.0362,0.65277 0.1088,0.87035 0.29012,0.72529 0.72529,1.19673 1.81323,1.19673 2.53853,0 4.78693,-1.19673 6.45511,-3.33634 -0.1088,-0.32638 -0.54397,-1.01541 -1.05167,-1.01541 -0.94289,1.08794 -2.17588,1.70443 -2.53853,1.70443 -0.29012,0 -0.39891,-0.29011 -0.39891,-0.65276 0,-0.47144 0.14505,-1.05167 0.25385,-1.55938 l 1.52311,-7.10787 c 0.32639,-1.45059 0.76156,-2.82864 0.76156,-3.44514 0,-0.50771 -0.29012,-0.76156 -0.76156,-0.76156 z m -5.18584,7.61557 c -1.77697,3.26382 -3.22755,5.11332 -4.38802,5.11332 -1.1242,0 -1.59564,-0.83409 -1.59564,-1.92202 0,-2.10336 0.72528,-4.53309 1.84949,-6.41885 1.05168,-1.7407 2.50226,-2.9737 4.06164,-2.9737 0.76156,0 1.16047,0.21759 1.233,0.68903 0,0 -0.25386,3.19129 -1.16047,5.51222 z m 15.01358,5.58476 1.30552,-5.9474 c 0.18132,-0.0362 0.36265,-0.0362 0.5077,-0.0362 0.29012,0 0.54397,0.25385 0.7253,0.58024 0.65276,1.16047 0.83409,3.00997 1.55938,4.64187 1.19673,2.61106 2.10335,3.73526 3.5902,3.73526 1.8495,0 3.88032,-0.94288 4.96826,-3.15502 -0.25385,-0.29012 -0.68903,-0.6165 -1.08794,-0.6165 -0.72529,1.05168 -1.45059,1.52311 -1.8495,1.52311 -0.72529,0 -0.94288,-0.58023 -1.19674,-1.37806 -0.65276,-2.03081 -0.97913,-3.04622 -1.48684,-4.06164 -0.58023,-1.1242 -1.19674,-1.99455 -2.39347,-2.32093 l -0.0362,-0.14506 1.88576,-1.66817 c 1.16047,-1.01541 2.03082,-1.26927 2.75612,-1.26927 0.43517,0 0.65276,0.21759 0.90661,0.54397 0.32638,0.36264 0.87035,0.94289 1.48685,0.94289 1.16047,0 1.9583,-1.30553 1.9583,-2.53853 0,-0.94288 -0.76156,-2.13962 -2.35721,-2.13962 -1.16046,0 -3.73526,1.37806 -6.34632,3.699 l -1.45058,1.233 c -0.54397,0.47143 -1.19673,0.97914 -1.8495,1.08794 l 2.466,-11.24204 c 0.25385,-1.19674 0.54397,-2.24842 0.54397,-2.9737 0,-0.76156 -0.25386,-1.19674 -1.08794,-1.19674 -1.1242,0 -4.46055,0.68903 -6.01993,0.94288 -0.21759,0.43517 -0.29012,0.90661 -0.18133,1.23299 2.24842,0 2.82865,0.21759 2.24842,2.71986 l -3.98911,17.80594 c -0.18133,0.87035 -0.47145,1.63191 -0.47145,1.99455 0,0.58024 0.36265,0.97915 2.39347,0.97915 2.21214,0 2.17588,-1.55938 2.50226,-2.9737 z"
       id="text4"
       style="-inkscape-font-specification:'Libertinus Serif Bold Italic';fill:url(#linearGradient8);fill-opacity:1;stroke:#65a30d;stroke-width:0.856646;stroke-linecap:round;stroke-linejoin:round"
       aria-label="Sane Break" />
  </g>
</svg>
