<?xml version="1.0" encoding="UTF-8" standalone="no"?>
<!-- Created with Inkscape (http://www.inkscape.org/) -->

<svg
   width="1280"
   height="640"
   viewBox="0 0 338.66667 169.33333"
   version="1.1"
   id="svg1"
   sodipodi:docname="social.svg"
   inkscape:version="1.4.2 (ebf0e940d0, 2025-05-08)"
   inkscape:export-filename="social.png"
   inkscape:export-xdpi="96"
   inkscape:export-ydpi="96"
   xmlns:inkscape="http://www.inkscape.org/namespaces/inkscape"
   xmlns:sodipodi="http://sodipodi.sourceforge.net/DTD/sodipodi-0.dtd"
   xmlns:xlink="http://www.w3.org/1999/xlink"
   xmlns="http://www.w3.org/2000/svg"
   xmlns:svg="http://www.w3.org/2000/svg">
  <sodipodi:namedview
     id="namedview1"
     pagecolor="#ffffff"
     bordercolor="#000000"
     borderopacity="0.25"
     inkscape:showpageshadow="2"
     inkscape:pageopacity="0.0"
     inkscape:pagecheckerboard="0"
     inkscape:deskcolor="#d1d1d1"
     inkscape:document-units="mm"
     inkscape:zoom="0.34960937"
     inkscape:cx="529.16202"
     inkscape:cy="451.93297"
     inkscape:window-width="1536"
     inkscape:window-height="827"
     inkscape:window-x="0"
     inkscape:window-y="0"
     inkscape:window-maximized="1"
     inkscape:current-layer="layer1" />
  <defs
     id="defs1">
    <linearGradient
       id="linearGradient3"
       inkscape:collect="always">
      <stop
         style="stop-color:#16a34a;stop-opacity:1"
         offset="0"
         id="stop3" />
      <stop
         style="stop-color:#166534;stop-opacity:1"
         offset="1"
         id="stop4" />
    </linearGradient>
    <linearGradient
       inkscape:collect="always"
       xlink:href="#linearGradient3"
       id="linearGradient4"
       x1="-19.906652"
       y1="-10.564318"
       x2="338.66666"
       y2="169.33333"
       gradientUnits="userSpaceOnUse" />
  </defs>
  <g
     inkscape:label="Layer 1"
     inkscape:groupmode="layer"
     id="layer1">
    <rect
       style="fill:url(#linearGradient4);stroke:none;stroke-width:2;stroke-linecap:round;stroke-linejoin:round;fill-opacity:1"
       id="rect1"
       width="338.66666"
       height="169.33299"
       x="0"
       y="0" />
    <g
       id="g4"
       transform="matrix(0.98747314,0,0,0.98747314,6.8028981,-21.635006)">
      <circle
         style="fill:#052e16;stroke:#2dd4bf;stroke-width:7.23191;stroke-linecap:round;stroke-linejoin:round;stroke-dasharray:none"
         id="path13"
         cx="164.36685"
         cy="80.643219"
         r="16.874447" />
      <circle
         style="fill:#f0fdf4;stroke:none;stroke-width:4.82127;stroke-linecap:round;stroke-linejoin:round;stroke-dasharray:none"
         id="path14"
         cx="168.60312"
         cy="80.797859"
         r="2.410635" />
      <circle
         style="fill:#f0fdf4;stroke:none;stroke-width:4.82127;stroke-linecap:round;stroke-linejoin:round;stroke-dasharray:none"
         id="path15"
         cx="172.95816"
         cy="71.357323"
         r="4.82127" />
      <path
         style="fill:#dcfce7;stroke:none;stroke-width:4.82127;stroke-linecap:round;stroke-linejoin:round;stroke-dasharray:none"
         d="m 114.90145,84.089876 c 0,0 33.99059,-66.174811 100.75635,-7.203157 0,0 -52.55349,-23.679692 -100.75635,7.203157 z"
         id="path16"
         sodipodi:nodetypes="ccc" />
      <path
         style="fill:#dcfce7;stroke:none;stroke-width:4.82127;stroke-linecap:round;stroke-linejoin:round;stroke-dasharray:none"
         d="m 119.60718,87.381961 c 0,0 42.97053,56.881149 94.93261,-7.460651 0,0 -46.84784,36.72867 -94.93261,7.460651 z"
         id="path17"
         sodipodi:nodetypes="ccc" />
    </g>
    <path
       style="font-style:italic;font-size:42.3333px;line-height:1;font-family:Z003;-inkscape-font-specification:'Z003 Medium Italic';text-align:center;text-anchor:middle;fill:#dcfce7;stroke:#dcfce7;stroke-width:0.857;stroke-linecap:round;stroke-linejoin:round"
       d="m 82.571283,133.20175 -1.862666,4.40266 c 1.481666,1.98967 3.428998,2.921 6.222996,2.921 6.476995,0 12.82699,-5.24933 12.82699,-10.66799 0,-1.73567 -0.634999,-2.62467 -3.809997,-5.08 -3.090331,-2.413 -3.598331,-3.13266 -3.598331,-4.953 0,-2.79399 2.074332,-5.12232 4.571997,-5.12232 1.777999,0 2.412998,0.76199 2.878664,3.47133 l 2.793994,-1.98967 c -0.254,-2.286 -1.52399,-3.47133 -3.76766,-3.47133 -4.36033,0 -9.313326,4.78366 -9.313326,9.01699 0,1.94734 0.846666,3.25967 3.344331,5.207 2.878664,2.286 3.640664,3.429 3.640664,5.37633 0,3.34433 -3.174998,6.22299 -6.857995,6.22299 -1.820332,0 -3.682997,-0.80433 -4.825996,-2.07433 -0.889,-0.97366 -1.227666,-1.86266 -1.566333,-3.72533 z m 37.634307,-1.22767 c -3.09033,2.11667 -3.81,2.54 -4.23333,2.54 -0.29634,0 -0.508,-0.33867 -0.508,-0.84667 0,-1.14299 0.97366,-5.58799 2.54,-11.38765 0.46566,-0.67734 0.55033,-0.762 1.22766,-1.524 -2.032,-0.46567 -3.47133,-0.635 -5.33399,-0.635 -1.73567,0 -2.58234,0.16933 -3.64067,0.84666 -1.524,0.889 -3.302,2.20134 -3.85233,2.794 -1.60866,1.778 -3.34433,7.493 -3.34433,10.92199 0,2.032 0.67733,3.38667 1.73567,3.38667 0.93133,0 2.32833,-0.84667 7.61999,-4.65667 -0.46567,2.159 -0.635,3.21734 -0.635,3.76767 0,0.59266 0.254,0.889 0.67733,0.889 0.55034,0 0.889,-0.16934 3.89467,-2.159 1.43933,-0.97367 2.24366,-1.524 3.80999,-2.667 z m -7.45066,-0.29633 c -1.48167,1.10067 -2.24367,1.651 -2.286,1.69333 -1.397,0.889 -2.49767,1.43933 -3.048,1.43933 -0.71967,0 -1.10067,-0.762 -1.10067,-2.11666 0,-2.159 0.635,-4.953 1.73567,-7.40833 1.016,-2.32833 1.94733,-3.21733 3.38666,-3.21733 0.762,0 2.20134,0.21167 3.59833,0.55033 -0.84666,3.048 -1.14299,4.191 -1.18533,4.40267 -0.254,1.05833 -0.46566,2.11666 -0.71966,3.21733 -0.0423,0.21166 -0.16934,0.71966 -0.381,1.43933 z m 11.34532,5.03766 2.49767,-9.94832 1.05833,-0.67734 c 3.937,-2.45533 4.40266,-2.70933 4.99533,-2.70933 0.254,0 0.42333,0.21167 0.42333,0.55034 0,0.67733 -0.29633,1.90499 -1.56633,7.06966 -0.93133,3.72533 -1.10066,4.48733 -1.10066,5.29166 0,0.59267 0.16933,1.10066 0.63499,1.905 1.905,-0.84667 4.86833,-2.70933 7.83167,-4.91067 l 0.29633,-1.18533 c -4.10633,2.37067 -4.40266,2.49767 -4.826,2.49767 -0.42333,0 -0.67733,-0.42334 -0.67733,-1.143 0,-1.143 0.16933,-1.86267 2.032,-8.59366 1.05833,-3.76767 1.05833,-3.76767 1.05833,-4.02167 0,-0.46566 -0.29633,-0.71966 -0.80433,-0.71966 -0.93133,0 -1.05833,0.0847 -5.63033,2.87866 -1.69333,1.05833 -2.794,1.73567 -3.302,2.07433 0.42333,-1.48166 1.016,-4.06399 1.016,-4.40266 0,-0.33867 -0.21167,-0.55033 -0.55033,-0.55033 -0.46567,0 -3.34433,1.48166 -6.64633,3.429 l -0.254,1.10066 c 2.70933,-1.22766 2.87866,-1.27 3.25966,-1.27 0.29634,0 0.508,0.254 0.508,0.59267 0,0.93133 -0.762,4.318 -1.86266,8.25499 l -0.97367,3.429 c -0.0847,0.29633 -0.29633,1.10067 -0.59266,2.286 z m 28.61728,-4.99533 c -3.38667,2.87867 -5.207,3.937 -6.81566,3.937 -1.10067,0 -1.94733,-0.71967 -2.24367,-1.82033 -0.16933,-0.67734 -0.21166,-1.143 -0.21166,-2.37067 1.94733,-1.22766 3.13266,-2.07433 5.63032,-3.93699 2.32834,-1.73567 3.175,-3.13267 3.175,-5.03767 0,-1.48166 -0.889,-2.37066 -2.413,-2.37066 -0.93133,0 -1.56633,0.21166 -2.58233,0.762 -1.60866,0.93133 -3.048,2.07433 -3.89466,3.09033 -1.60867,1.94733 -3.048,6.60399 -3.048,10.03299 0,2.49767 1.31233,4.064 3.47133,4.064 2.49767,0 5.715,-1.86267 8.89,-5.12233 z m -9.14399,-1.778 c 0.71966,-4.57199 2.62466,-8.04332 4.48733,-8.04332 0.67733,0 1.14299,0.67733 1.14299,1.73566 0,2.11667 -1.22766,3.47133 -5.63032,6.30766 z m 20.57396,7.53533 c 1.10066,0 1.143,0 2.45533,0.0423 h 1.43933 c 0.254,0 0.80433,0 1.48167,0.0423 2.83633,0.0423 2.83633,0.0423 3.59833,0.0423 2.921,0 5.07999,-0.55033 7.95866,-1.94733 3.81,-1.94733 5.67266,-4.36033 5.67266,-7.45066 0,-1.31233 -0.635,-2.54 -1.69333,-3.34433 -0.889,-0.67734 -1.82033,-0.93133 -3.85233,-1.18533 4.23333,-1.86267 6.30766,-4.191 6.30766,-6.90033 0,-2.83633 -2.24366,-4.02167 -7.53533,-4.02167 h -0.635 l 0.33867,-1.31233 -3.429,1.48167 c -3.64066,0.55033 -5.71499,1.18533 -7.61999,2.32833 -3.38667,2.07433 -5.12233,5.03766 -5.12233,8.76299 0,0.889 0.0847,1.48167 0.29633,2.75167 l 3.38667,-1.56634 c -0.381,-1.98966 -0.42334,-2.28599 -0.42334,-3.13266 0,-2.87866 0.889,-4.65666 3.048,-6.05366 1.651,-1.10067 3.38666,-1.60867 6.05366,-1.778 l -3.13266,12.53066 c -1.778,7.32366 -2.49767,8.25499 -6.604,8.67832 z m 12.10732,-12.31899 c 0.80433,-0.0847 1.18533,-0.0847 1.60867,-0.0847 3.34433,0 5.20699,1.48167 5.20699,4.10633 0,1.60867 -0.67733,3.47134 -1.73566,4.65667 -1.143,1.31233 -2.83633,1.98966 -4.953,1.98966 -1.143,0 -2.07433,-0.0847 -6.26533,-0.55033 4.14867,-3.683 4.826,-4.699 5.715,-8.50899 z m 2.794,-11.21832 c 2.032,0.0423 2.54,0.127 3.13266,0.42333 1.016,0.46567 1.651,1.69333 1.651,3.09033 0,1.98967 -0.97366,4.02166 -2.413,5.12233 -1.31233,0.97367 -2.58233,1.35467 -4.86832,1.397 z m 10.49867,24.00298 3.25967,-1.22767 3.17499,-12.06499 c 1.43934,-1.10066 2.413,-1.48166 3.556,-1.48166 0.93133,0 1.48167,0.33866 2.24367,1.31233 l 1.26999,-4.02167 c -0.76199,-0.254 -1.14299,-0.33866 -1.56633,-0.33866 -0.80433,0 -1.651,0.381 -2.794,1.18533 -0.55033,0.42333 -1.10066,0.84667 -1.69333,1.22767 -0.254,0.21166 -0.55033,0.42333 -0.80433,0.59266 l 0.508,-2.54 c 0,-0.254 -0.254,-0.46566 -0.55033,-0.46566 -0.55034,0 -4.27567,1.82033 -6.858,3.34433 l -0.127,1.143 c 2.45533,-1.18533 2.49767,-1.22767 3.048,-1.22767 0.55033,0 0.80433,0.29634 0.80433,0.889 0,0.59267 -0.42333,2.54 -0.93133,4.40266 z m 24.42626,-6.223 c -3.38666,2.87867 -5.20699,3.937 -6.81566,3.937 -1.10066,0 -1.94733,-0.71967 -2.24366,-1.82033 -0.16934,-0.67734 -0.21167,-1.143 -0.21167,-2.37067 1.94733,-1.22766 3.13267,-2.07433 5.63033,-3.93699 2.32833,-1.73567 3.175,-3.13267 3.175,-5.03767 0,-1.48166 -0.889,-2.37066 -2.413,-2.37066 -0.93133,0 -1.56633,0.21166 -2.58233,0.762 -1.60867,0.93133 -3.048,2.07433 -3.89467,3.09033 -1.60866,1.94733 -3.04799,6.60399 -3.04799,10.03299 0,2.49767 1.31233,4.064 3.47133,4.064 2.49766,0 5.71499,-1.86267 8.88999,-5.12233 z m -9.14399,-1.778 c 0.71967,-4.57199 2.62467,-8.04332 4.48733,-8.04332 0.67733,0 1.143,0.67733 1.143,1.73566 0,2.11667 -1.22767,3.47133 -5.63033,6.30766 z m 28.44798,2.032 c -3.09033,2.11667 -3.81,2.54 -4.23333,2.54 -0.29634,0 -0.508,-0.33867 -0.508,-0.84667 0,-1.14299 0.97366,-5.58799 2.53999,-11.38765 0.46567,-0.67734 0.55034,-0.762 1.22767,-1.524 -2.032,-0.46567 -3.47133,-0.635 -5.334,-0.635 -1.73566,0 -2.58233,0.16933 -3.64066,0.84666 -1.524,0.889 -3.302,2.20134 -3.85233,2.794 -1.60867,1.778 -3.34433,7.493 -3.34433,10.92199 0,2.032 0.67733,3.38667 1.73566,3.38667 0.93134,0 2.32834,-0.84667 7.62,-4.65667 -0.46567,2.159 -0.635,3.21734 -0.635,3.76767 0,0.59266 0.254,0.889 0.67733,0.889 0.55034,0 0.889,-0.16934 3.89467,-2.159 1.43933,-0.97367 2.24366,-1.524 3.80999,-2.667 z m -7.45066,-0.29633 c -1.48167,1.10067 -2.24367,1.651 -2.286,1.69333 -1.397,0.889 -2.49767,1.43933 -3.048,1.43933 -0.71967,0 -1.10067,-0.762 -1.10067,-2.11666 0,-2.159 0.635,-4.953 1.73567,-7.40833 1.016,-2.32833 1.94733,-3.21733 3.38666,-3.21733 0.762,0 2.20133,0.21167 3.59833,0.55033 -0.84666,3.048 -1.143,4.191 -1.18533,4.40267 -0.254,1.05833 -0.46567,2.11666 -0.71966,3.21733 -0.0423,0.21166 -0.16934,0.71966 -0.381,1.43933 z m 8.08565,6.30766 c 0.46567,-0.16933 0.889,-0.33867 1.016,-0.381 0.254,-0.0847 0.67733,-0.21167 1.143,-0.381 0.127,-0.0423 0.508,-0.16933 0.93133,-0.29633 l 1.651,-7.53533 0.97367,-0.59267 c 0.84666,1.94734 1.016,2.32834 2.37066,5.50333 1.82034,4.318 2.921,6.05367 4.65667,7.40833 1.82033,1.397 4.44499,2.286 6.68866,2.286 1.94733,0 3.302,-0.42333 4.61433,-1.48167 l -0.84667,-3.04799 c -1.35466,2.286 -2.58233,3.17499 -4.36033,3.17499 -1.397,0 -2.54,-0.67733 -3.85233,-2.24366 -1.143,-1.35467 -1.143,-1.35467 -5.67266,-10.96433 l -1.22767,-2.62466 2.83633,-2.58233 c 1.69334,-1.48167 2.159,-1.778 2.96334,-1.778 0.71966,0 1.22766,0.33867 1.90499,1.22767 l 2.159,-3.21734 c -0.84666,-0.635 -1.43933,-0.84666 -2.37066,-0.84666 -1.143,0 -1.86267,0.381 -3.13267,1.56633 -1.31233,1.27 -1.35466,1.31233 -1.82033,1.73567 l -5.46099,4.86833 1.60866,-6.477 c 1.35467,-5.588 1.82033,-6.94266 2.54,-8.12799 0.762,-1.22767 1.86266,-1.82034 3.302,-1.82034 0.381,0 0.71966,0.0423 1.48166,0.16934 l 1.69333,-2.45533 c -0.55033,-0.0847 -0.80433,-0.127 -1.22766,-0.127 -1.524,0 -2.49767,0.33866 -3.85233,1.31233 -2.70933,1.905 -4.61433,3.76766 -5.16466,4.99533 -0.42334,0.93133 -1.22767,3.72533 -1.778,6.18066 z"
       id="text1"
       aria-label="Sane Break" />
  </g>
</svg>
